<?xml version="1.0" encoding="UTF-8"?><svg xmlns="http://www.w3.org/2000/svg" xmlns:xlink="http://www.w3.org/1999/xlink" viewBox="0 0 50 50" version="1.1"><path d="M38.012 4a1.004 1.004 0 0 0-.965.691L32.074 20H17.926L12.953 4.691a1.008 1.008 0 0 0-.93-.691 1.007 1.007 0 0 0-.96.648L5.07 20.641c-.004 0-.004.004-.008.007l-3 8a1 1 0 0 0 .352 1.16l21.992 15.993.004.008c.004 0 .004 0 .004.004l.04.023c.015.008.026.02.042.027.004 0 .004.004.008.004 0 0 .004.004.008.004.004.004.008.008.015.008l.016.012c.02.007.043.02.066.027v.004l.067.023c.004 0 .004 0 .008.004.015.004.03.008.05.016.008 0 .016.004.028.004 0 .004 0 .004 0 0 .02.008.039.011.058.015l.078.012c.04 0 .082.004.122.004.039-.004.074-.004.109-.012.016 0 .027 0 .043-.004h.008c.008-.004.011-.004.02-.004.003 0 .007-.003.015-.003.008-.004.02-.004.027-.008a.491.491 0 0 0 .04-.012c.007 0 .011 0 .015-.004h.012a.636.636 0 0 0 .102-.043c.003 0 .003 0 .007-.004.004 0 .008 0 .012-.004l.023-.011a.894.894 0 0 0 .063-.036c.007-.003.011-.007.015-.011.004 0 .008-.004.012-.004.016-.012.031-.02.047-.031l.008-.012L47.59 29.809c.363-.266.504-.739.347-1.16l-2.992-7.973a.072.072 0 0 1-.008-.028l-6-16A1.001 1.001 0 0 0 38.013 4zM8.066 22h8.407l5.855 18.016zm25.461 0h8.407L27.672 40.016zM6.312 23.008l13.375 16.894L4.204 28.641zm37.376 0l2.109 5.633-15.484 11.261z" id="surface1"/><metadata><rdf:RDF xmlns:rdf="http://www.w3.org/1999/02/22-rdf-syntax-ns#" xmlns:rdfs="http://www.w3.org/2000/01/rdf-schema#" xmlns:dc="http://purl.org/dc/elements/1.1/"><rdf:Description about="https://iconscout.com/legal#licenses" dc:title="gitlab,filled" dc:description="gitlab,filled" dc:publisher="Iconscout" dc:date="2017-12-09" dc:format="image/svg+xml" dc:language="en"><dc:creator><rdf:Bag><rdf:li>Icons8</rdf:li></rdf:Bag></dc:creator></rdf:Description></rdf:RDF></metadata></svg>