<?xml version="1.0" standalone="no"?>
<!DOCTYPE svg PUBLIC "-//W3C//DTD SVG 20010904//EN"
 "http://www.w3.org/TR/2001/REC-SVG-20010904/DTD/svg10.dtd">
<svg version="1.0" xmlns="http://www.w3.org/2000/svg"
 width="474.000000pt" height="474.000000pt" viewBox="0 0 474.000000 474.000000"
 preserveAspectRatio="xMidYMid meet">
<metadata>
Created by potrace 1.15, written by Peter Selinger 2001-2017
</metadata>
<g transform="translate(0.000000,474.000000) scale(0.100000,-0.100000)"
fill="#000000" stroke="none">
<path d="M1465 4003 c-65 -65 -36 -214 44 -221 24 -3 31 -7 27 -19 -14 -37
-18 -217 -6 -309 47 -375 260 -710 618 -971 127 -94 123 -89 116 -121 -12 -53
-53 -109 -141 -193 -331 -317 -419 -424 -483 -590 -53 -137 -71 -242 -72 -420
0 -86 3 -166 6 -177 6 -19 2 -21 -46 -24 -47 -3 -55 -6 -76 -38 -32 -47 -28
-137 8 -175 l23 -25 887 0 887 0 23 25 c36 38 40 128 8 175 -15 23 -33 36 -50
38 l-27 3 0 177 c0 243 -26 368 -115 535 -60 115 -144 214 -341 402 -146 140
-180 179 -206 231 -37 76 -34 93 29 136 436 297 684 717 681 1153 0 50 -4 111
-8 137 -6 36 -4 48 6 52 41 16 67 119 44 179 -23 61 44 57 -931 57 -814 0
-890 -1 -905 -17z m1711 -330 c26 -213 -54 -505 -199 -725 -80 -121 -278 -321
-414 -417 -126 -89 -139 -115 -108 -217 22 -74 98 -165 253 -306 325 -296 425
-499 424 -865 0 -78 -3 -147 -7 -153 -16 -26 -52 0 -186 133 -198 197 -422
378 -499 402 -19 6 -20 19 -20 485 l0 480 78 54 c115 81 234 187 323 290 77
88 175 223 167 231 -2 2 -48 13 -103 25 -128 27 -529 39 -735 21 -139 -12
-352 -40 -359 -47 -3 -2 15 -32 39 -67 150 -214 326 -389 475 -472 l65 -37 0
-477 0 -477 -36 -18 c-69 -32 -159 -110 -374 -323 -210 -208 -216 -213 -256
-213 -29 0 -44 5 -48 16 -12 31 -6 290 9 369 20 113 32 149 76 240 55 114 126
204 258 330 292 280 331 327 346 417 11 65 -7 91 -133 185 -328 243 -519 516
-588 837 -19 92 -28 229 -20 299 l7 57 779 0 779 0 7 -57z"/>
</g>
</svg>
