<?xml version="1.0" standalone="no"?>
<!DOCTYPE svg PUBLIC "-//W3C//DTD SVG 20010904//EN"
 "http://www.w3.org/TR/2001/REC-SVG-20010904/DTD/svg10.dtd">
<svg version="1.0" xmlns="http://www.w3.org/2000/svg"
 width="3462.000000pt" height="8000.000000pt" viewBox="0 0 3462.000000 8000.000000"
 preserveAspectRatio="xMidYMid meet">
<metadata>
Created by potrace 1.15, written by Peter Selinger 2001-2017
</metadata>
<g transform="translate(0.000000,8000.000000) scale(0.100000,-0.100000)"
fill="#000000" stroke="none">
<path d="M19250 79344 c-14 -2 -194 -11 -400 -19 -414 -17 -830 -39 -1045 -54
-77 -6 -234 -18 -350 -26 -115 -8 -230 -17 -255 -20 -25 -3 -126 -12 -225 -21
-319 -27 -964 -95 -1280 -134 -259 -32 -339 -42 -520 -65 -110 -14 -207 -27
-215 -30 -8 -2 -35 -6 -60 -9 -154 -19 -582 -81 -700 -101 -19 -3 -51 -8 -70
-11 -51 -7 -259 -41 -560 -89 -14 -2 -81 -14 -150 -25 -69 -12 -134 -23 -145
-25 -291 -48 -1050 -187 -1430 -261 -1006 -196 -2054 -422 -3285 -709 -848
-198 -1406 -333 -3053 -739 -235 -58 -435 -106 -443 -106 -9 0 -14 -6 -11 -12
2 -8 17 -12 33 -10 16 1 99 3 184 4 124 1 174 -3 250 -20 269 -59 497 -182
703 -381 394 -380 578 -864 517 -1361 -56 -454 -329 -904 -695 -1145 -231
-152 -512 -235 -795 -235 -322 0 -670 109 -922 290 -83 59 -202 179 -260 261
-65 90 -134 237 -160 342 -23 86 -23 87 -63 102 -486 175 -777 314 -1096 523
l-86 56 -17 95 c-10 56 -29 120 -47 156 -48 99 -155 199 -254 241 -21 8 -37
23 -40 37 -2 12 -30 166 -60 342 -100 572 -116 657 -139 720 -135 373 -527
595 -911 517 -375 -77 -651 -415 -647 -792 1 -60 28 -235 90 -585 l90 -500
-43 -45 c-58 -60 -100 -130 -125 -206 -35 -105 -27 -178 103 -909 65 -363 142
-799 172 -970 318 -1810 301 -1719 336 -1790 44 -89 125 -171 214 -215 39 -19
71 -35 72 -35 1 0 89 -496 194 -1095 27 -157 63 -359 79 -450 16 -91 47 -268
69 -395 58 -331 586 -3339 621 -3535 16 -91 47 -268 69 -395 36 -203 80 -457
206 -1175 19 -107 122 -697 230 -1310 239 -1358 310 -1763 380 -2165 50 -287
431 -2456 581 -3310 36 -203 87 -496 114 -650 67 -386 119 -679 435 -2480 324
-1848 372 -2118 430 -2450 24 -137 69 -394 100 -570 31 -176 69 -394 85 -485
16 -91 111 -628 210 -1195 100 -566 210 -1196 246 -1400 36 -203 83 -473 105
-600 22 -126 76 -432 119 -680 44 -247 125 -709 180 -1025 56 -316 144 -818
196 -1115 101 -574 163 -930 269 -1535 36 -206 81 -463 100 -570 62 -349 496
-2821 524 -2983 l27 -157 -53 -342 c-204 -1316 -381 -2729 -513 -4083 -16
-170 -34 -356 -40 -412 -24 -249 -31 -318 -45 -488 -9 -99 -22 -252 -30 -340
-8 -88 -19 -218 -25 -290 -5 -71 -12 -155 -15 -185 -3 -30 -14 -170 -25 -310
-11 -140 -22 -280 -25 -310 -3 -30 -10 -116 -15 -190 -6 -74 -15 -191 -20
-260 -6 -69 -12 -152 -15 -185 -5 -68 -21 -269 -35 -455 -6 -69 -12 -154 -15
-190 -8 -95 -42 -545 -50 -655 -9 -128 -44 -599 -50 -670 -5 -66 -10 -141 -35
-482 -5 -76 -12 -167 -15 -203 -4 -59 -39 -555 -80 -1145 -8 -121 -17 -251
-20 -290 -3 -38 -10 -140 -15 -225 -6 -85 -15 -218 -21 -295 -5 -77 -16 -243
-24 -370 -8 -126 -19 -297 -25 -380 -6 -82 -17 -258 -25 -390 -8 -132 -20
-307 -25 -390 -6 -82 -17 -258 -25 -390 -8 -132 -19 -314 -25 -405 -6 -91 -17
-275 -25 -410 -8 -135 -19 -321 -25 -415 -6 -93 -17 -286 -25 -427 -8 -141
-20 -332 -25 -425 -6 -92 -17 -289 -25 -438 -8 -148 -19 -344 -25 -435 -5 -91
-16 -298 -25 -460 -8 -162 -17 -326 -20 -365 -3 -38 -7 -117 -10 -175 -3 -58
-10 -186 -15 -285 -5 -99 -14 -272 -20 -385 -5 -113 -12 -245 -15 -295 -5 -93
-17 -326 -35 -690 -5 -115 -12 -253 -15 -305 -5 -98 -17 -348 -35 -720 -5
-118 -12 -262 -15 -320 -7 -149 -23 -487 -35 -750 -5 -124 -12 -274 -15 -335
-5 -107 -14 -317 -35 -805 -5 -129 -12 -287 -15 -350 -3 -63 -10 -230 -15
-370 -6 -140 -15 -360 -20 -489 -9 -212 -18 -439 -50 -1281 -5 -146 -12 -326
-15 -400 -3 -74 -10 -263 -15 -420 -6 -157 -15 -409 -20 -560 -6 -151 -17
-486 -25 -745 -8 -258 -20 -607 -25 -775 -5 -168 -12 -377 -15 -465 -5 -154
-14 -465 -35 -1195 -5 -190 -12 -426 -15 -525 -3 -99 -10 -358 -15 -575 -6
-217 -15 -566 -20 -775 -5 -209 -14 -587 -20 -840 -5 -253 -14 -662 -20 -910
-18 -805 -30 -1418 -40 -2045 -6 -338 -15 -874 -20 -1190 -15 -896 -24 -1810
-18 -1810 4 0 89 11 190 25 100 14 219 30 263 36 44 5 91 12 105 14 14 2 68 9
120 14 52 6 136 16 185 21 162 18 419 45 530 55 39 3 90 8 115 10 60 6 407 34
495 40 39 3 102 7 140 10 1318 97 3285 97 5045 0 52 -3 178 -10 280 -15 196
-11 465 -27 590 -35 41 -3 147 -10 235 -15 178 -12 418 -28 510 -35 33 -2 98
-7 145 -10 47 -3 168 -12 270 -20 102 -8 248 -19 325 -25 77 -5 167 -12 200
-15 33 -3 116 -9 185 -15 335 -26 389 -30 440 -35 30 -3 116 -10 190 -15 191
-15 249 -20 295 -25 22 -3 130 -12 240 -20 249 -19 309 -24 360 -30 22 -3 128
-12 235 -20 176 -14 325 -26 480 -40 30 -3 168 -14 305 -25 138 -11 275 -22
305 -25 30 -3 111 -9 180 -15 69 -5 181 -14 250 -20 69 -6 213 -17 320 -25
107 -8 251 -19 320 -25 69 -6 220 -17 335 -25 116 -8 269 -20 340 -25 72 -6
234 -17 360 -25 127 -8 295 -19 375 -25 80 -5 228 -14 330 -20 102 -5 262 -15
355 -20 94 -5 258 -14 365 -20 190 -10 274 -14 1085 -47 504 -20 2319 -30
2675 -14 135 6 353 16 485 21 132 5 366 17 520 25 1001 54 2027 162 2945 311
52 8 109 17 125 20 421 66 1111 206 1630 330 1139 272 2140 597 3229 1047
l219 90 -6 121 c-3 67 -11 184 -16 261 -14 187 -19 270 -31 460 -6 88 -15 228
-20 310 -6 83 -17 258 -25 390 -8 132 -20 308 -25 390 -5 83 -17 258 -25 390
-15 233 -24 382 -45 697 -5 84 -17 263 -25 398 -8 135 -20 313 -25 395 -5 83
-17 260 -25 395 -8 135 -20 315 -25 400 -6 85 -17 268 -25 405 -9 138 -20 313
-25 390 -5 77 -16 256 -25 399 -9 142 -20 327 -25 410 -6 83 -17 264 -25 401
-8 138 -20 318 -25 400 -6 83 -17 263 -25 400 -8 138 -20 320 -25 405 -5 85
-16 265 -25 400 -8 135 -19 317 -25 405 -5 88 -17 275 -25 415 -8 140 -20 325
-25 410 -5 85 -14 232 -20 325 -5 94 -12 204 -15 245 -3 41 -10 152 -15 245
-6 94 -15 244 -20 335 -6 91 -12 201 -15 245 -6 100 -22 347 -35 570 -5 94
-12 206 -15 250 -6 99 -21 345 -35 575 -5 96 -12 207 -14 245 -6 85 -12 174
-31 500 -8 138 -17 286 -20 330 -6 96 -21 346 -35 585 -5 96 -12 207 -15 245
-3 39 -10 151 -15 250 -15 262 -29 498 -35 590 -3 44 -10 159 -15 255 -6 96
-15 247 -20 335 -6 88 -12 203 -15 255 -3 52 -8 122 -10 155 -5 52 -23 365
-40 685 -3 52 -8 122 -10 155 -3 33 -12 179 -20 325 -9 146 -20 337 -25 425
-6 88 -17 279 -25 425 -8 146 -20 335 -25 420 -5 85 -17 274 -25 420 -8 146
-20 335 -25 420 -5 85 -16 270 -25 410 -8 140 -20 318 -25 395 -5 77 -17 241
-25 365 -8 124 -20 286 -25 360 -5 74 -17 239 -25 365 -9 127 -20 291 -25 365
-5 74 -14 212 -20 305 -5 94 -12 204 -15 245 -8 120 -24 406 -35 655 -5 127
-12 280 -15 340 -16 319 -23 1128 -15 1510 9 413 21 676 65 1495 10 183 37
733 50 1035 59 1299 57 2604 -5 3485 -37 515 -85 971 -150 1407 -11 72 -25
176 -30 230 -13 124 -13 523 0 943 28 915 41 1999 36 3075 -3 605 -10 1260
-15 1456 -13 439 -29 939 -36 1079 -3 58 -10 202 -15 320 -11 229 -27 543 -35
650 -2 36 -6 106 -10 155 -7 123 -34 517 -40 585 -2 30 -7 89 -10 130 -16 212
-65 767 -90 1010 -158 1545 -371 2897 -675 4280 -132 602 -330 1273 -515 1751
-154 397 -383 877 -569 1194 -426 725 -978 1355 -1606 1836 -297 227 -519 375
-1155 769 -816 505 -1124 723 -1553 1098 -177 155 -519 502 -652 662 -604 727
-933 1477 -1204 2745 -25 116 -88 431 -140 700 -283 1458 -454 2206 -682 2975
-76 254 -114 364 -282 815 -278 748 -366 1045 -422 1415 -26 180 -35 322 -35
590 0 373 25 625 100 990 133 654 370 1241 836 2075 318 570 363 652 440 805
157 311 177 458 77 566 -67 73 -119 87 -333 90 -213 4 -281 -6 -706 -95 -726
-154 -1857 -468 -3749 -1042 -700 -213 -1173 -388 -1740 -645 -125 -57 -465
-230 -623 -317 -817 -454 -1516 -1030 -2031 -1677 -302 -379 -503 -696 -717
-1134 -201 -412 -333 -779 -474 -1316 -31 -118 -95 -354 -142 -525 -280 -1019
-361 -1342 -447 -1780 -73 -371 -117 -706 -136 -1028 -33 -569 -40 -645 -86
-947 -56 -366 -126 -684 -339 -1540 -251 -1003 -322 -1381 -369 -1945 -19
-229 -21 -297 -21 -805 0 -429 2 -465 25 -625 31 -220 35 -494 7 -594 -42
-149 -130 -270 -280 -385 -40 -30 -166 -112 -282 -181 -115 -70 -257 -159
-315 -198 -1300 -874 -2277 -2460 -2800 -4546 -179 -713 -269 -1276 -333
-2086 -3 -33 -33 -157 -67 -275 -124 -436 -248 -901 -384 -1441 l-92 -367 -47
272 c-26 149 -76 435 -111 636 -408 2317 -460 2615 -507 2885 -22 127 -53 304
-69 395 -16 91 -88 500 -160 910 -72 410 -169 963 -216 1230 -47 267 -114 649
-149 850 -35 201 -87 496 -115 655 -28 160 -73 416 -100 570 -108 618 -170
973 -435 2480 -151 864 -289 1644 -305 1735 -16 91 -47 269 -69 395 -45 255
-56 322 -336 1915 -108 613 -241 1372 -296 1685 -55 314 -106 606 -114 650 -8
44 -39 224 -70 400 -59 339 -230 1312 -264 1505 -31 177 -178 1011 -216 1230
-19 107 -64 364 -100 570 -64 364 -105 597 -219 1250 -30 173 -98 560 -151
860 -373 2124 -483 2750 -540 3075 -24 138 -71 408 -105 600 -34 193 -83 474
-110 625 l-48 274 54 61 c29 33 67 87 83 120 56 114 63 196 31 371 -11 60 -18
114 -16 120 13 34 464 270 673 352 446 176 848 252 1328 252 439 0 771 -63
1180 -223 148 -57 400 -180 555 -270 130 -75 444 -282 565 -372 80 -60 91 -66
110 -54 28 18 297 163 440 239 66 34 156 82 200 105 428 226 1116 564 1581
778 436 200 441 203 1014 452 204 88 780 324 1070 437 2182 850 4448 1494
6655 1893 256 46 476 84 575 100 14 2 95 15 180 29 85 14 184 30 220 35 36 5
191 28 345 50 335 48 599 82 1025 131 300 35 968 96 1245 115 50 3 149 10 220
15 72 5 171 12 220 15 50 3 126 7 170 10 458 29 898 39 1725 39 868 0 1279
-10 1795 -44 412 -27 600 -41 705 -50 546 -48 690 -62 1130 -116 289 -34 454
-57 875 -119 301 -44 771 -125 1080 -185 61 -12 121 -24 133 -26 466 -87 1333
-290 1882 -441 626 -171 1334 -392 1854 -577 117 -42 156 -50 130 -28 -57 50
-222 185 -359 294 -1311 1041 -2840 1915 -4505 2575 -1216 482 -2517 861
-3865 1127 -209 41 -437 84 -540 101 -22 4 -49 9 -60 11 -11 2 -105 17 -210
34 -104 17 -201 33 -215 35 -14 2 -54 9 -90 14 -36 5 -112 16 -170 25 -164 24
-462 63 -610 81 -268 31 -309 35 -550 59 -220 22 -364 35 -770 66 -69 6 -208
15 -310 20 -716 41 -807 43 -1670 45 -481 2 -886 1 -900 -1z"/>
</g>
</svg>
