<?xml version="1.0" standalone="no"?>
<!DOCTYPE svg PUBLIC "-//W3C//DTD SVG 20010904//EN"
 "http://www.w3.org/TR/2001/REC-SVG-20010904/DTD/svg10.dtd">
<svg version="1.0" xmlns="http://www.w3.org/2000/svg"
 width="512.000000pt" height="512.000000pt" viewBox="0 0 512.000000 512.000000"
 preserveAspectRatio="xMidYMid meet">
<metadata>
Created by potrace 1.15, written by Peter Selinger 2001-2017
</metadata>
<g transform="translate(0.000000,512.000000) scale(0.100000,-0.100000)"
fill="#000000" stroke="none">
<path d="M3292 4799 c-538 -69 -988 -509 -1086 -1060 -31 -173 -28 -381 6
-517 l11 -43 -79 -82 c-44 -45 -90 -90 -103 -101 l-23 -19 -424 424 -424 424
0 120 0 120 -275 138 c-151 75 -281 137 -288 137 -7 0 -74 -62 -150 -138
l-139 -139 141 -281 141 -282 118 0 117 0 427 -427 427 -428 -617 -620 c-665
-668 -668 -671 -716 -825 -101 -318 36 -651 327 -795 195 -97 403 -97 607 1
72 35 101 62 708 668 l632 631 153 -153 154 -154 -5 -98 c-5 -114 15 -200 68
-285 18 -27 154 -172 303 -321 242 -241 280 -275 344 -306 140 -70 283 -72
421 -8 71 33 162 114 199 178 81 138 84 329 5 476 -18 36 -112 137 -307 332
-258 259 -286 284 -355 318 -93 45 -200 63 -282 49 l-57 -10 -155 156 -156
156 98 98 98 98 95 -17 c138 -25 354 -23 492 5 436 87 791 373 960 771 69 164
110 384 87 470 -21 76 -105 140 -185 140 -63 0 -101 -24 -210 -129 -250 -243
-318 -291 -470 -327 -85 -20 -221 -22 -295 -5 -126 30 -273 122 -360 227 -153
182 -194 410 -116 635 39 113 81 171 253 349 161 167 183 199 183 265 0 45
-24 102 -59 136 -55 56 -105 66 -239 48z m-2184 -3555 c152 -63 189 -259 71
-371 -114 -107 -293 -72 -360 72 -82 177 109 375 289 299z"/>
</g>
</svg>
